<?xml version="1.0" encoding="iso-8859-1"?>
<!-- Generator: Adobe Illustrator 19.0.0, SVG Export Plug-In . SVG Version: 6.00 Build 0)  -->
<svg version="1.1" id="Layer_1" xmlns="http://www.w3.org/2000/svg" xmlns:xlink="http://www.w3.org/1999/xlink" x="0px" y="0px"
	 viewBox="0 0 512 512" style="enable-background:new 0 0 512 512;" xml:space="preserve">
<circle style="fill:#FAD55C;" cx="255.991" cy="256" r="255.991"/>
<path style="fill:#E3C04D;" d="M511.703,243.715C511.895,247.792,512,251.887,512,256c0,124.548-88.935,228.289-206.764,251.249
	L120.978,322.99l273.806-196.193L511.703,243.715z"/>
<path style="fill:#F8F8F8;" d="M129.308,121.704h253.384c9.328,0,16.958,7.63,16.958,16.958v169.576
	c0,9.328-7.63,16.958-16.958,16.958h-94.133l-32.55,65.118l-32.568-65.118h-94.133c-9.328,0-16.958-7.63-16.958-16.958V138.662
	C112.351,129.334,119.981,121.704,129.308,121.704z"/>
<path style="fill:#EAEAED;" d="M399.649,293.713v14.525c0,9.328-7.63,16.958-16.958,16.958h-94.133l-32.55,65.118l-32.568-65.118
	h-94.133c-9.328,0-16.958-7.63-16.958-16.958v-14.525c0,9.328,7.63,16.958,16.958,16.958h94.133l32.568,65.118l32.55-65.118h94.133
	C392.019,310.67,399.649,303.04,399.649,293.713z"/>
<g>
	<polygon style="fill:#5ED1B3;" points="350.404,157.947 161.596,157.947 161.596,172.35 350.404,172.35 	"/>
	<polygon style="fill:#5ED1B3;" points="350.404,228.665 161.596,228.665 161.596,243.067 350.404,243.067 	"/>
	<polygon style="fill:#5ED1B3;" points="266.001,264.015 185.448,264.015 185.448,278.418 266.001,278.418 	"/>
	<polygon style="fill:#5ED1B3;" points="326.552,264.015 282.801,264.015 282.801,278.418 326.552,278.418 	"/>
	<polygon style="fill:#5ED1B3;" points="281.524,193.297 189.123,193.297 189.123,207.7 281.524,207.7 	"/>
	<polygon style="fill:#5ED1B3;" points="296.801,193.297 322.877,193.297 322.877,207.7 296.801,207.7 	"/>
</g>
<g>
</g>
<g>
</g>
<g>
</g>
<g>
</g>
<g>
</g>
<g>
</g>
<g>
</g>
<g>
</g>
<g>
</g>
<g>
</g>
<g>
</g>
<g>
</g>
<g>
</g>
<g>
</g>
<g>
</g>
</svg>
